HIERARCHY
ROOT Hips
{
	OFFSET 0.000000 0.000000 0.000000
	CHANNELS 6 Xposition Yposition Zposition Xrotation Yrotation Zrotation
	JOINT LeftUpLeg_virtual
	{
		OFFSET 0.000000 0.000000 0.000000
		CHANNELS 3 Xrotation Yrotation Zrotation
		JOINT LeftUpLeg
		{
			OFFSET 15.427100 -6.655098 0.678600
			CHANNELS 3 Xrotation Yrotation Zrotation
			JOINT LeftLeg
			{
				OFFSET 4.081073 -39.591068 13.024000
				CHANNELS 3 Xrotation Yrotation Zrotation
				JOINT LeftFoot
				{
					OFFSET -4.081074 -37.707932 -15.979700
					CHANNELS 3 Xrotation Yrotation Zrotation
					JOINT LeftToeBase
					{
						OFFSET 5.346399 -15.068900 20.645000
						CHANNELS 3 Xrotation Yrotation Zrotation
						JOINT LeftToe_End
						{
							OFFSET 2.754700 0.931300 11.300900
							CHANNELS 3 Xrotation Yrotation Zrotation
							End Site
							{
								OFFSET 0 0 0
							}
						}
					}
				}
			}
		}
	}
	JOINT RightUpLeg_virtual
	{
		OFFSET 0.000000 0.000000 0.000000
		CHANNELS 3 Xrotation Yrotation Zrotation
		JOINT RightUpLeg
		{
			OFFSET -15.569500 -6.655098 0.678600
			CHANNELS 3 Xrotation Yrotation Zrotation
			JOINT RightLeg
			{
				OFFSET -4.081825 -39.591045 13.023800
				CHANNELS 3 Xrotation Yrotation Zrotation
				JOINT RightFoot
				{
					OFFSET 4.081824 -37.707954 -15.979600
					CHANNELS 3 Xrotation Yrotation Zrotation
					JOINT RightToeBase
					{
						OFFSET -5.346400 -15.068900 20.645000
						CHANNELS 3 Xrotation Yrotation Zrotation
						JOINT RightToe_End
						{
							OFFSET -2.754700 0.931300 11.300900
							CHANNELS 3 Xrotation Yrotation Zrotation
							End Site
							{
								OFFSET 0 0 0
							}
						}
					}
				}
			}
		}
	}
	JOINT Spine_virtual
	{
		OFFSET 0.000000 0.000000 0.000000
		CHANNELS 3 Xrotation Yrotation Zrotation
		JOINT Spine
		{
			OFFSET -0.279200 12.230698 -2.892100
			CHANNELS 3 Xrotation Yrotation Zrotation
			JOINT Spine1
			{
				OFFSET -0.232667 10.192268 -1.242267
				CHANNELS 3 Xrotation Yrotation Zrotation
				JOINT Spine1_split
				{
					OFFSET -0.232667 10.192268 -1.242267
					CHANNELS 3 Xrotation Yrotation Zrotation
					JOINT Spine2
					{
						OFFSET -0.232667 10.192268 -1.242267
						CHANNELS 3 Xrotation Yrotation Zrotation
						JOINT Neck_virtual
						{
							OFFSET 0.000000 0.000000 0.000000
							CHANNELS 3 Xrotation Yrotation Zrotation
							JOINT Neck
							{
								OFFSET -0.418800 17.814194 8.416900
								CHANNELS 3 Xrotation Yrotation Zrotation
								JOINT Head
								{
									OFFSET 0.000000 7.031097 3.806800
									CHANNELS 3 Xrotation Yrotation Zrotation
									JOINT HeadTop_End
									{
										OFFSET 0.000000 24.646606 12.978600
										CHANNELS 3 Xrotation Yrotation Zrotation
										End Site
										{
											OFFSET 0 0 0
										}
									}
								}
							}
						}
						JOINT LeftShoulder_virtual
						{
							OFFSET 0.000000 0.000000 0.000000
							CHANNELS 3 Xrotation Yrotation Zrotation
							JOINT LeftShoulder
							{
								OFFSET 8.476499 7.247704 -3.868750
								CHANNELS 3 Xrotation Yrotation Zrotation
								JOINT LeftShoulder_split
								{
									OFFSET 8.476499 7.247704 -3.868750
									CHANNELS 3 Xrotation Yrotation Zrotation
									JOINT LeftArm
									{
										OFFSET 9.308998 -2.777710 0.208600
										CHANNELS 3 Xrotation Yrotation Zrotation
										JOINT LeftForeArm
										{
											OFFSET 29.972298 0.000000 0.000000
											CHANNELS 3 Xrotation Yrotation Zrotation
											JOINT LeftHand
											{
												OFFSET 26.026505 0.000000 0.000000
												CHANNELS 3 Xrotation Yrotation Zrotation
												End Site
												{
													OFFSET 0 0 0
												}
											}
										}
									}
								}
							}
						}
						JOINT RightShoulder_virtual
						{
							OFFSET 0.000000 0.000000 0.000000
							CHANNELS 3 Xrotation Yrotation Zrotation
							JOINT RightShoulder
							{
								OFFSET -7.570500 7.247704 -3.868750
								CHANNELS 3 Xrotation Yrotation Zrotation
								JOINT RightShoulder_split
								{
									OFFSET -7.570500 7.247704 -3.868750
									CHANNELS 3 Xrotation Yrotation Zrotation
									JOINT RightArm
									{
										OFFSET -9.308998 -2.777710 0.208500
										CHANNELS 3 Xrotation Yrotation Zrotation
										JOINT RightForeArm
										{
											OFFSET -29.972300 0.000000 0.000000
											CHANNELS 3 Xrotation Yrotation Zrotation
											JOINT RightHand
											{
												OFFSET -26.026505 0.000000 0.000000
												CHANNELS 3 Xrotation Yrotation Zrotation
												End Site
												{
													OFFSET 0 0 0
												}
											}
										}
									}
								}
							}
						}
					}
				}
			}
		}
	}
}
MOTION
Frames: 4
Frame Time: 0.03333333
-3.212423 143.226898 -2.823610 0.000000 0.000000 0.000000 6.518342 3.147520 4.111086 -48.727567 13.860797 6.157359 38.702987 6.778975 -3.005026 36.170387 7.302403 3.636059 -9.629173 0.618703 2.850246 0.000000 0.000000 0.000000 7.439525 4.368265 3.226810 -5.632249 0.157897 -6.775273 24.907089 -5.618230 9.434532 19.794482 -15.392899 15.717768 -1.027558 3.965472 0.492387 0.000000 0.000000 0.000000 7.549549 1.091382 4.236179 -10.199312 2.513060 0.729571 -3.569916 0.859624 -0.192748 2.663321 -5.284416 2.293580 0.000000 0.000000 0.000000 -1.258370 -0.176943 0.381287 -21.083646 -0.382799 -2.803453 -2.332283 -0.961839 5.449478 0.000000 0.000000 0.000000 -6.376750 0.422443 -0.390777 14.812249 3.632920 29.132109 9.897603 10.343846 -0.021440 -56.741892 -36.943530 8.538429 -36.080310 -23.050806 6.183478 0.000000 0.000000 0.000000 -6.232032 0.256131 0.694900 4.506041 -8.544738 -32.757154 -4.469150 2.782431 -0.286921 -69.716738 33.907064 11.846453 -27.248874 21.009927 0.076084 0.000000 0.000000 0.000000 
-2.106210 144.121140 -5.115267 0.000000 0.000000 0.000000 6.033600 0.779957 4.506954 -47.871088 11.413168 4.603825 40.839299 6.032125 -2.710972 35.018127 6.726548 2.680490 -8.481790 0.499391 2.583694 0.000000 0.000000 0.000000 7.364291 1.955281 3.565678 -6.842577 -1.978520 -7.376913 29.139004 -4.282799 10.038376 22.556771 -14.151015 15.850963 0.925540 3.821943 0.545115 0.000000 0.000000 0.000000 7.416550 -0.592682 4.712637 -10.334624 2.253589 0.724964 -3.695734 1.146277 0.293651 1.982101 -3.729482 1.221013 0.000000 0.000000 0.000000 -0.294453 0.226696 0.544076 -21.020751 -0.790412 -1.945963 -3.911114 -1.639379 5.310107 0.000000 0.000000 0.000000 -6.019182 0.724291 0.098430 14.700814 3.850596 29.363755 9.351489 8.824132 0.128413 -59.295509 -39.428295 5.022858 -34.918990 -23.651321 7.933067 0.000000 0.000000 0.000000 -5.712122 0.521135 0.886457 4.424464 -8.437984 -33.148844 -4.686072 2.836957 -0.228342 -70.118790 33.467165 11.639684 -27.300920 21.820149 0.023559 0.000000 0.000000 0.000000 
-0.425182 145.542938 -8.466150 0.000000 0.000000 0.000000 5.212375 -3.680531 4.517724 -48.114086 8.561266 2.640929 45.840593 3.683399 -2.026564 31.749516 4.365992 1.036858 -7.041213 0.271392 1.833324 0.000000 0.000000 0.000000 7.139219 -2.648247 3.861526 -7.032176 -3.564109 -8.365581 31.768829 -3.376207 9.903992 25.502624 -11.898867 15.837518 0.215374 3.631376 0.940104 0.000000 0.000000 0.000000 7.095305 -4.461745 4.965089 -9.475033 2.583335 0.883190 -3.835780 2.261944 0.859884 1.651669 -1.793018 0.062287 0.000000 0.000000 0.000000 0.448759 1.514057 0.719612 -20.574881 -1.120842 -1.141387 -7.103212 -1.869281 5.001604 0.000000 0.000000 0.000000 -5.937127 1.911748 0.569755 14.992282 4.717696 29.496930 8.763353 7.354216 -0.149356 -65.488339 -41.330024 -1.199715 -33.352288 -26.376492 10.891930 0.000000 0.000000 0.000000 -5.366878 1.657928 1.226102 5.023044 -7.854005 -33.691049 -4.637723 2.588382 -0.182272 -71.536628 31.782837 12.040526 -27.560375 23.180931 -0.173911 0.000000 0.000000 0.000000 
1.060839 147.215790 -11.961973 0.000000 0.000000 0.000000 4.467629 -9.183099 4.125131 -49.431285 6.067216 0.772636 51.622174 0.954277 -1.252178 26.590951 1.544420 -0.506036 -6.284708 -0.122128 0.992567 0.000000 0.000000 0.000000 6.879760 -8.918080 3.944197 -5.837564 -4.744368 -9.431489 31.730262 -3.309665 8.751177 26.674805 -9.991685 14.067635 -1.115352 3.454937 1.651252 0.000000 0.000000 0.000000 6.586274 -10.584900 4.663365 -7.479112 3.490749 1.167034 -3.848808 4.090883 1.465834 1.821154 0.025855 -0.724262 0.000000 0.000000 0.000000 0.855839 3.553771 0.909403 -19.804540 -1.436640 -0.392607 -11.246786 -1.528149 4.662342 0.000000 0.000000 0.000000 -5.897995 3.852960 0.959611 15.591386 6.265202 29.647321 7.417924 6.349812 -0.310794 -72.552339 -41.275844 -7.386033 -31.604207 -29.442473 14.951849 0.000000 0.000000 0.000000 -5.069863 3.610777 1.686114 6.082520 -6.915248 -34.408495 -4.597873 2.256354 -0.204134 -73.510642 29.779953 12.722414 -27.766833 24.516964 -0.665022 0.000000 0.000000 0.000000 
